<?xml version="1.0" encoding="UTF-8"?>
<svg id="Layer_2" data-name="Layer 2" xmlns="http://www.w3.org/2000/svg" viewBox="0 0 1120.75 556.52">
  <defs>
    <style>
      .cls-1 {
        fill: #35a7af;
      }
    </style>
  </defs>
  <g id="Layer_1-2" data-name="Layer 1">
    <g>
      <path class="cls-1" d="M508.72,102.85c-2.9-1.17-4.64-3.51-4.62-6.43-.82-4.08-.19-8.33-2.68-12.3l.04,60.28.46,13.6c.14,4.27-1.31,8.19-4.47,10.82-5.22,4.37-13.93,3.66-14.07-.38-.17-4.87-.06-9.37.05-14.17l.46-20.25.55-15.05c.13-3.54.47-6.96-.42-10.87-5.14,9.66-10.49,18.03-16.6,26.56-.55.77-1.22,1.38-2.18,1.22-.81-.13-1.22-1.4-.79-2.46,9.12-22.47,15.16-45.72,18.32-69.82.08-.6-.07-1.7-.36-1.99-.37-.36-1.56-.63-2.08-.52-4.32.9-8.16,1.91-12.42,2.58-1.99.31-3.56-4.29-1.89-5.26,2.04-1.19,5.05-1.05,7.44-1.2l7.7-.49c1.43-.09,3.4-1.13,3.4-2.86l-.03-30.12c0-3.62-3.42-9.8.58-10.01,6.81-.35,13.39.21,20.09,1.38,1.95.34,3.17,2.42,2.27,4.22-1.8,3.62-6.13,3.26-6.12,7.3l.03,24.14c2.74-1.81,4.9-12.91,9.72-9.3,3.28,2.46,6.65,6.12,9.08,9.15.46.58.47,2.61.15,3.19-.37.66-1.47,1.53-2.41,1.67l-14.21,2.12c-1.3.19-2.39,1.17-2.39,2.54l.05,13.83c0,.74,1.46,1.7,2.27,1.93,3.28.92,6.94,2.55,10.85,4.45l-1.62-5.37c-.15-.5-.16-1.66.11-2.1,1.09-1.77,5.16-.85,7.88-2.42l7.28-15.68c1.97-4.24-5.98,1.08-7.77-5.08l-1.91-6.55c-2.53-8.68-8.23-8.9-6.91-11.46,1.02-1.98,5.54.48,9.31-.62,1.13-.33,1.55-3.15,1.81-4.33,1.19-5.44,2.24-10.48,2.74-15.99.07-.74.16-1.72.4-2.16.28-.52,1.76-.84,2.36-.73,4.26.81,17.54,3.13,17.35,7.87-.17,4.18-5.21,2.65-8.01,6.16l-8.34,10.43c-1.08,1.35-.58,2.67.59,3.82,2.84,2.79,1.59,2.62,3.53,3.54.27.13.9-.66.98-.97l2.91-12.31c.3-1.26,1.84-1.97,2.92-1.66l10.11,2.92c1.08-.97,1.09-2.62,1.11-3.96.06-5.97-.1-11.61-1.91-17.34-.2-.62.84-2.08,1.49-2.11,4.12-.17,20.46-.91,21.68,3.1,1.54,5.1-7.32,5.21-3.93,13.46,2.76.77,6.17.6,9.14.22,1.8-6.41,2.71-12.3,3.51-18.78.15-1.23,1.31-2.39,2.57-2.24,4.05.49,17.35,2.13,17.81,6.7.41,4.08-4.99,2.7-8.73,7.31l-6.91,8.52c-.32.39-.86,1.42-.9,1.91-.04.59.78,1.37,1.32,2.01l2.45,2.92c.37.23,1.6-.81,1.71-1.35l2.34-11.28c.26-1.23,2.51-1.04,3.46-.77,3.98,1.13,14.35,3.44,14.57,7.08.18,2.92-4.1,3.31-4.94,4.68l-9.59,15.64c9.84,2.91,16.69,9.11,15.92,19.45-.36,4.8-3.99,8.44-8.74,8.53-6.5.13-4.55-8.02-5.76-11.72l-13.57,10.08c3.07,1.23,6.01,1.48,7.96,3.53.8.84,1.73,2.09,2.55,2.3,3.76.92,1.9-3.73,8.52.65,3.63,2.4,11.9,7.11,9.52,11.11-.4.67-1.58,1.34-2.69,1.5l-33.95,4.84c-1.35.19-2.54,1.44-2.06,2.98l3.42,10.94c.09.29.61.88.8,1.09s1.14-.5,1.26-.79l4.95-12.04c.66-1.6,2.1-2.45,3.73-1.69,4.82,2.26,9.37,4.71,13.7,7.78,1.22.87,1.99,2.57,1.76,3.79s-1.52,2.92-2.67,3.08c-4.08.58-5.95,3.05-8.12,6.07l-5.58,7.77c1.65,2.26,3.65,4.42,6.11,5.58,1.94.92,4.03-.48,5.17-2.06,3.7-5.12,6.57-11.02,8.92-16.9.22-.54,1.81-.86,2.27-.56s.67,1.36.54,2.07c-.94,5.08-1.73,9.94-2.12,15.05-.31,4.02.49,7.65,2.6,10.93s2.56,7.47,1.23,11.18c-1.09,3.04-3.6,5.3-6.83,5.93-11.45,2.22-22.6-6.22-30.07-13.98-1.44-1.49-2.77-1.19-4.23,0-14.64,12-29.69,17.46-47.5,22.64-.6.18-1.61-.99-1.57-1.52s.6-1.52,1.24-1.83c15.13-7.42,28.87-16.87,40.5-29,1.36-1.42,2.22-3.1,1.32-5.03-3.5-7.52-5.94-15.2-7.77-23.36-.3-1.33-.64-3.37-1.53-4.33-1.03-1.1-3.6-.25-4.94-.16-3.88.26-7.02,1.18-10.03,3.75-2.85,2.44-5.34,8.27-2.37,11.29,7.79,1.57,15.64,2.05,18.49,11.32,1.64,5.32-.56,10.64-5.55,13.23-2.24,1.16-4.58,1.34-6.91.01-4.76-2.71-1.87-8.32-6.08-16.64-.19-.38-1.32-1.02-1.68-.84-.46.22-.92,1.09-1.08,1.73-1.16,4.68-2.39,8.76-4.19,13.23-5.45,13.55-14.85,25.21-27.36,32.77-.33.2-1.17.09-1.5-.02-.41-.14-.83-1.6-.39-2.13,8.03-9.6,13.73-22.06,15.66-34.74,1.26-8.25,1.57-15.78,2.17-23.99.52-7.15-4.58-.76-11.16-3.41ZM583.94,43.5c-1.35-.25-5.59.51-6.89-3.83l-2.45-8.17c-1.22-4.08-6.62-9.66-6.58-6.11l.18,16.66.79,14.91c3.49.69,8.52.32,10.76-2.74.8-1.09,5.78-10.43,4.19-10.72ZM552.53,63.94l-1.31-26.19c-.01-.3-.49-1.29-.68-1.15s-.93.6-1.14.97l-9.7,16.29c-.28.47.04,2.04.52,2.11,4.86.71,8.54,4.13,12.32,7.97ZM596.86,52.17c.34-2.43-.26-4.75-2.47-5.75-2.05,2.23-3.64,4.28-5.18,7.16,2.97-.14,4.89-.66,7.65-1.42ZM539.62,66.57c.32-3.14-.42-6.18-2.83-8.23l-7.31,10.52c4.07-.43,6.92-1.18,10.14-2.29ZM579.9,75.1c-.52-.93-2.34-1.13-3.26-.78-5,1.92-4.58-5.77-6.59-8.1.13,8.12.93,15.42,2.62,23.32,4.97.2,9.37-.54,14.05-1.84-5.35-4.03-2.78-5.36-6.83-12.59ZM555.02,89.98l-1.39-10.14-4.49,2.65c-1.77,1.04-3.97,1.08-5.75.06-3.9-2.24-1.59-7.85-3.89-8.16l-7.47,6.34c-2.82,2.39-5.75,4.59-9.09,6.19-3.97,1.91-6.1,6.26-4.1,10.37l34.76-4.49c1.28-.17,1.58-1.73,1.43-2.81Z"/>
      <path class="cls-1" d="M177.09,184.61c10.84-11.7,20.35-24.59,26.72-40.15-14.95,10.52-29.13,19-46,23.59-.49.13-1.72-.31-1.76-.74s.34-1.44.72-1.68c5.25-3.36,10-7.1,14.48-11.35,9.55-9.06,16.82-16.97,23.06-28.08.26-.46.11-1.74-.17-1.88-.37-.19-1.21-.39-1.71-.31l-10.36,1.56c-8.4,1.27-16.43,2.63-24.75,4.57-.65.15-2.24.05-2.57-.44s-.67-1.57-.82-2.37c-.3-1.61.49-3.05,2.13-3.14,10.13-.58,19.88-1.68,29.98-3.14l28.48-4.12c1.09-.16,1.93-1.47,1.93-2.51v-11.64c-.01-.35-.18-1.14-.3-1.41-.16-.37-1.33-.78-1.74-.72l-21.17,2.99c-8.48,1.2-16.45,2.7-24.81,4.51-.72.16-2.04.1-2.46-.32-1.04-1.03-1.66-3.25-1.3-4.52.16-.56,1.38-.98,2.12-1.02,8.98-.48,17.57-1.4,26.51-2.67l21.04-3c1.03-.15,2.07-1.36,2.07-2.34v-8.74c.02-6.05-2.9-9.84,1.3-9.92l8.68-.16c5.38-.1,10.01.43,15.6,1.89.46-2.23.44-4.75.08-6.92-.68-.22-2.12-.46-2.72-.37l-25.83,3.61c-6.19.87,3.67,14.16-7.11,19.28-3.54,1.68-12.89,4.06-13.32.69-1.21-9.47,2.25-17.44-2.22-16.77-10.5,1.57-20.6,3.17-30.95,5.41-.84.18-2.33.49-2.97.15-1.12-.58-1.98-3.81-1.33-4.92.25-.41,1.2-.69,1.87-.77l33.46-3.86c1.96-.23,2.4-1.96,2.41-3.59.05-4.32-.17-8.49-1.25-12.59-.16-.62.1-2,.58-2.3.8-.48,20.98-2.38,22.75,2.04.4.98-.09,2.57-.85,3.34l-2.72,2.77c-1.78,1.81-1.86,6.01.53,7.29l28.95-4.13c2.14-2.16.52-13.48,0-16.67-.22-1.33,2.18-1.79,3.24-1.86,6.07-.4,11.61-.67,17.56.36,1.25.21,2.53,1.55,2.84,2.55,1.43,4.62-7.88,4.81-3.61,12.22,5.37.79,9.12-.07,12.21-4.87,1.99-3.09,4.02-5.76,6.28-8.63,1.61-2.05,4.06-3.58,6.72-2.15,4.96,2.67,9.4,5.91,13.62,9.76.68.63.98,2.45.75,3.25s-1.48,1.8-2.57,1.96l-34.73,4.95c-7.22,1.03,3.06,12.63-6.71,18.38-3.94,2.32-8.69,3.63-13.3,2.93-1.96-.3-1.73-4-2.26-5.52-.12-.35-1.13.16-1.54.37-3.8,1.97-5.93,6.83-3.19,10.61l21.31-3.01c4.45-3.34,9.03-18.44,15.16-13.99,3.84,2.8,7.29,5.51,10.95,8.65.8.69,1.04,2.92.74,4.01-.28,1.01-1.86,1.95-3.37,2.16l-43.26,6.09c-.72.1-1.96,1.03-2.3,1.58-.41.65-.07,2.06-.05,3.06l.19,9.55c.02,1.06,1.13,2.29,2.37,2.12l32.49-4.58c1.45-.2,2.95-2.43,3.59-3.58,2.31-4.11,4.47-7.76,7.46-11.3,1-1.18,3.27-1.75,4.6-.96,3.08,1.83,16.62,10.3,14.86,13.93-.31.63-1.54,1.62-2.3,1.76l-9.06,1.6c-1.09.79-1.27,3.36-1.33,4.81-.18,3.75.65,6.86,2.96,9.67,1.98,2.4,2,5.74.82,8.62-1.65,4.02-5.21,6.38-9.36,7.78-6.58,2.22-13.27,3.12-20.27,4.3-4.22.71,3.2,3.5,6.9,7.75,1.4,1.6,1.51,4.83-.51,5.59-4.28,1.6-7.58,3.91-10.41,7.53s-6.39,7.45-9.71,10.88c-.23.24-.56.84-.67,1.08-.83,1.97,17.51,1.28,19.23,1.15,11.25-.86,21.87-2.77,32.88-4.88.64-.12,1.45,0,1.83.25.47.3.34,2.11-.21,2.56-13.55,11.11-10.8,22.5-15.78,23.15-17.59,2.31-37.18,1.14-52.98-7.57-1.43-.79-3.29-.64-4.7.28-21.57,14.04-44.03,20.55-69.23,24.81-.83.14-2.1-.34-2.22-.99-.15-.84.47-1.73,1.38-2.03,20.78-6.94,42.57-16.81,59.31-31,.88-.74.88-2.13.12-2.98-2.8-3.15-5.21-6.94-6.99-10.62-.14-.29-.73-.87-.99-.97-.34-.13-1.16.19-1.44.47-13.95,14.19-28.47,24.33-47,31.64-.46.18-1.71-.49-1.73-.91s.27-1.28.74-1.64c5.56-4.27,11.22-8.93,16.39-14.5ZM259.21,128.47l7.98-.95c15.59-1.86,18.77-15.26,18.57-15.61-.41-.69-1.56-.85-2.42-.72l-20.96,3.07c-2.12.31-4.53,1.17-5.77,2.94-1.99,2.83-1.98,8.76-.55,10.5.45.54,2.18.89,3.15.77ZM222.17,154.47l17-2.36c2.96-.41,5.52-1.85,5.99-5.11-.65-.35-1.72-.91-2.34-1.11-8.25-2.74-6.88-11.35-6.45-17.71.18-2.69.13-5.76.11-8.6,0-.68-1.6-1.49-2.32-1.38l-27.46,4.08,10.5,4.73c1.16.52,2.25,1.72,2.27,2.93.08,4.11-6.49,2.57-9.02,8.45,1.31.82,2.66,1.39,4.12,1.79,4.25,1.14,8.23,2.27,12.22,3.99,1.39.6,2.28,2.07,2.02,3.5-.56,3.13-7.69,2.16-6.64,6.81ZM225.05,172.52c2.14,1.3,4.09,1.09,5.64-.78,1.29-1.56,11.7-14.3,10.44-15.31-.22-.17-1.02-.47-1.46-.41l-20.62,3.1c-2.16.32-4.26,3.14-4.22,5.01,2.52,3.77,6.37,6.04,10.22,8.38Z"/>
      <g>
        <path class="cls-1" d="M1120.75,226.74v.61l-4.44,4.89c-11.58,12.73-28.64,18.85-45.9,16.76-7.24-.88-13.21-4.45-18.14-9.63-8.52-8.94-12.93-20.89-11.28-33.22.35-2.64-.39-4.84-3.32-5.56-4.13-1.01-8.23-1.6-12.95-1.88l-.28,18.55v11.82s.52,20.2.52,20.2c.19,7.41,1.91,14.85-4.97,19.54-6.28,4.28-14.23,6.42-21.86,5.42-1.92-.25-2.16-3.55-2.14-4.94l.34-20.88.57-14.16.14-13.84c0-.51-.42-1.37-.73-1.56-.24-.15-1.1.18-1.51.59-10.76,10.78-24.12,21.35-37.65,30.09-14.25,9.21-28.86,16.52-44.43,23.05-1.06.44-2.52.67-2.92-.27s.1-2.16,1.1-2.84c15.36-10.54,29.26-22.49,42.44-35.72,19.98-20.06,37.19-42.47,50.57-67.39.34-.63.13-2-.33-2.29s-1.46.02-2.28.13l-45.3,6.44c-13.12,1.86-25.69,4.28-38.61,6.98-2.25.47-3.44-.86-3.88-2.85-.37-1.7-.75-3.64.05-5.17,13.48-.93,26.39-2.14,39.69-3.99l34.17-4.75,79.58-11.32c3.84-.55,5.82-1.78,7.74-5.13,3.5-6.12,7.38-12.16,11.89-17.56,1.71-2.05,4.55-2.07,6.68-.83,5.5,3.22,10.4,6.93,15.38,10.91,3.05,2.44,7.2,6.04,4.95,9.87-.46.78-1.88,1.65-3.2,1.84l-69.18,9.81c1.63,2.01,3.41,3.22,4.16,5.17.9,2.34-.84,4.49-3.05,5.17-3.77,1.16-7.38,2.82-9.75,6.14l-7.42,10.36c4.78,2.02,8.56,3.19,13.01,4.55,11.06,3.38,20.44,10.04,28.33,18.48,4.95,5.29,11.77,12.43,18.65,15.48l-8.12-8.72-10.9-13.1c-4.1-4.93-8.96-8.72-14.48-11.92-1.19-.69-1.53-2.39-.63-3.47,5.12-6.12,12.44-8.59,20.25-8.59,6.74,0,12.59,2.01,17.24,6.95,2.22,2.36,4.52,4.75,6.27,7.59,3.49,5.66,6.57,11.27,9.6,17.19s7.44,11.36,13.66,14.73c1,.54,1.99,1.49,2.66,2.27Z"/>
        <path class="cls-1" d="M908.69,362.49l5.75-.21,19.63-1.9c1.09-.11,2.13-1.28,2.15-2.32l.17-13.25.4-22.33c.21-11.66.63-32.32-1.61-43.19-.26-1.24.89-2.95,2.33-2.76,8.49,1.11,16.65,2.72,24.71,5.49,1.96.67,3.78,1.5,6.06,1.18l77.53-11.1c2.96-.42,5.71-.7,7.36-3.33,2.37-3.77,4.78-7.52,7.67-10.94,1.73-2.04,4.35-2.94,6.93-1.67,7.57,3.7,14.68,8.23,20.89,13.94,1.49,1.37,2.37,3.67,2.14,5.46-.66,5.03-8.41,5.4-8.41,14.13v47.41c0,.46.57,1.36.68,1.27.13-.1.65-.47.75-.64l10.29-18.84c.64-1.18,2.16-2.21,3.13-2.5,1.08-.32,3.04.3,4.04,1.1,3.99,3.17,18.24,15.26,15.82,20.17-.54,1.09-2.19,2.5-4.01,2.76l-158.83,22.68c-14.34,2.05-28.21,4.56-42.22,7.67-3.53.78-4.46-6.67-3.35-8.26ZM1043.18,345.06l8.74-1.2c1.19-.16,3.1-1.27,3.1-2.75v-63.39c-1.17-1.46-2.52-1.26-3.99-1.16-3.53.22-5.61,1.99-7.51,4.79-.62.92-2.99,1.76-2.99,3.35l-.02,58.39c0,1.4,1.34,2.16,2.67,1.98ZM1002.94,350.69l9.91-1.33c1.35-.18,2.46-1.36,2.46-2.94v-63.32c-3.04-2.06-6.65-.75-8.95,1.8-1.19,1.32-3.21,2.51-4.07,3.91-1.6,2.61-.77,5.49-.77,8.31v50.17c0,1.01-.1,3.59,1.43,3.39ZM973.88,354.91c2.18-.32,2.47-1.93,2.47-3.69l-.02-63.13c-6.44-1.82-13.83,3.08-13.84,8.11l-.07,57.82c0,1.6,1.48,2.37,2.86,2.16l8.6-1.27Z"/>
      </g>
      <path class="cls-1" d="M663.48,387.99c.21,6.87-3.68,12.37-8.21,16.9-7.67,7.65-17.29,12.79-28.18,13.58-10.17.73-2.1-16.54-17.22-21.88-6.49-2.29-12.35-1.42-12.49-4.36-.05-1.15,1.06-1.88,2.35-2.06,9.77-1.35,19.32-2.82,28.64-5.74,4.35-1.36,6.41-4.54,6.83-9.11v-168.57c.03-4.22-2.83-11.97-1.82-13.85.25-.47,1.37-1.06,2.01-1.06l9.91-.13c6.64-.08,13.17.02,19.57,1.39,2.41.51,4.92,2.15,4.83,4.7-.2,5.99-8.33,6.01-8.32,10.59l.06,68.03.31,33.31.49,17.28.49,16.9.42,32.66.35,11.45Z"/>
      <path class="cls-1" d="M625.93,354.6c.56,5.67-2.03,5.07-5.79,8.54-1.27,1.17-3.37.91-4.83.75-.93,1.47-2.03,2.99-3.87,3.29-8.9,1.45-6.48,3.69-17.4,1.22-4.38-.99-4.89-4.43-4.88-9.56l.04-99.57c0-3.6.71-6.68.42-10.17-.19-2.32.54-4.42,2.05-6.06,6.77-7.37,16.41-9.96,26.13-7.64,4.44,1.06,8.29,4.4,8.05,9.53l-.73,15.76-2.48,58.56c3.38,2,5.61,4.82,8.08,7.67,2.3,2.65,3.11,5.12,2.11,8.6-1.83,6.38-8.73.51-8.06,7.25l1.17,11.83ZM611.74,246.62c-.92-2.33-4.42-1.44-6.55-.67-.74.27-1.52,1.7-1.39,2.39.11.59,1.14,1.6,1.77,1.68,3.55.45,6.91-1.53,6.17-3.4Z"/>
      <g>
        <path class="cls-1" d="M751.1,447.11l.14,25.49c.03,5.28-2.59,9.46-7.29,11.89-5.64,2.92-11.9,4.25-18.45,3.63-4.37-.41-2.64-12.25-2.61-14.13l.4-26.14.52-21.02.48-24.93.48-22.07.48-22.06.49-18.71.14-21.65c-12.09,17.49-25.21,33.16-40.19,47.81-.42.41-1.89.36-2.29,0s-.69-1.67-.42-2.17l10.95-20.34c9.13-16.96,27.52-63.32,27.68-82.13-10.89,1.4-21.07,3.71-31.84,6.28-2.18-1.93-3.13-5.06-2.56-8.14,1.08-.42,2.75-.78,4.1-.83,10.91-.4,21.35-1.38,32.13-2.95.87-.13,2.04-.36,2.42-.83s.69-1.84.69-2.58v-32.17c0-.42-.26-1.51-.43-1.87s-1.15-.53-1.54-.42c-10.8,3.25-21.23,6.09-32.29,8.63-1,.23-2.42-.71-2.64-1.45-.2-.69.17-2.32.84-2.67l12.32-6.54c14.89-7.9,28.72-17.01,41.47-28.04,3.47-3,6.52-5.99,8.86-9.86,1.39-2.3,3.66-1.95,5.62-.68,6.51,4.25,12.91,8.15,18.77,13.29,1.83,1.6,3.76,4.4,2.56,6.72-1.5,2.91-5.18,3.49-8.17,3.72-3.49.27-6.53,1.76-9.6,3.2l-5.16,2.43c1.07,1.75,2.63,3.34,2.57,4.84-.25,5.81-9.39,2.89-9.29,11.74l.2,17.59-.16,9.62c2.84,2.34,6.42.83,8.01-1.98,3-5.34,6.05-10.41,9.44-15.42,1.34-1.98,3.71-2.35,5.57-.94,4.89,3.69,9.41,7.7,13.47,12.33,1.17,1.33,1.55,3.31,1.02,4.98-.43,1.38-2.09,2.7-3.96,2.97l-31.35,4.56c-1.05.15-2.07,1.5-2.08,2.49l-.03,15c0,1.59,1.03,3.12,2.7,3.23,6.71.43,13.06,1.61,19.11,4.48,9.01,4.26,14.54,13.33,13.66,23.17-.45,5.08-2.52,9.51-6.25,12.32-3.92,2.95-8.94,4.43-13.81,2.77s-5.32-11.05-5.84-15.55c-1.38-11.93-9.47-23.67-9.52-18.3l-.17,17.34v17.78s.5,30.74.5,30.74l.13,95.51Z"/>
        <g>
          <path class="cls-1" d="M866.96,371.4c.33,13.2-17.76,16.67-27.78,16.54-1.92-.02-3.36-1.55-3.37-3.66l-.05-31.08.43-6.81.25-29.65c0-.29-.39-1.13-.62-1.3s-1.04-.2-1.52-.03l-35.9,12.72c-9.36,3.32-18,7-26.98,11-1.54.69-2.92.07-3.77-1.3-1.15-1.84-1.88-3.87-1.22-6.04,12.25-3.09,23.93-6.4,35.81-10.62l31.44-11.17c2.07-.74,3.43-2.82,3.45-4.98l.42-38.88.07-90.02c0-4.25-1.08-8.04-2.07-11.99-.37-1.49.91-2.88,2.51-2.92,6.15-.17,12.11-.07,18.33.13,5.29.17,10.4.29,15.37,2.03,1.69.59,2.34,2.85,2.28,4.44s-1.27,3.5-3.04,4.3c-3.19,1.45-5.92,4.14-5.92,8.24v100.77c.01,5.09.42,9.47,1.11,14.85l7.19-21.32c.44-1.32,1.72-2.81,2.68-3.32,5.35-2.81,17.79,11.27,21.12,15.65.66.86.99,2.82.67,3.76s-1.5,2.39-2.71,2.83l-25.64,9.28c-1.55.56-3.73,1.9-3.68,3.71l.32,12.23.47,37.34.38,15.26Z"/>
          <path class="cls-1" d="M812.87,234.96c-5.47,1.56-10.6.16-14.83-2.9-4.01-2.9-6.05-7.8-6.46-13.19-.94-12.37,7.64-23.52,20.16-24.88,6.61-.72,12.99,2.53,15.88,8.48,6.3,12.93-.76,28.52-14.75,32.5Z"/>
          <path class="cls-1" d="M825.2,283.42c-5.83,8.43-18.79,12.73-27.81,4.83-4.3-3.76-6.06-8.8-5.86-14.76.34-9.87,6.64-18.91,16.19-22s18.82,2.07,21.32,11.41c1.84,6.87.32,14.5-3.84,20.52Z"/>
        </g>
      </g>
      <path class="cls-1" d="M2.44,223.71c-2.27-.32-2.97-4.52-2.05-6.38l46.06-5.62,61.28-8.73c1.48-.21,3-2.51,3.62-3.59,2.94-5.1,5.73-9.72,9.17-14.42,1.34-1.82,4.04-2.82,6.23-1.55,5.61,3.26,10.7,7.27,15.35,11.85,1.55,1.52,2.63,3.99,1.29,6.04-.65.99-2.65,1.74-4.18,1.96l-111.5,15.85-25.28,4.6Z"/>
      <g>
        <path class="cls-1" d="M32.26,353.69l-3.29-14.57c-2.95-13.08-11.19-17.88-12.64-19.85-.33-.44.15-2.12.66-2.37,2.69-1.29,13.31.5,17.07,1.39,1.22.29,2.47-.49,2.76-1.71l4.44-18.59c1.74-7.3,2.75-14.4,3.54-21.87.13-1.21,1.4-2.52,2.72-2.32,7.17,1.12,19.65,3.46,25.72,7.07,1.55.92,2.21,2.69,2.07,4.43-.44,5.2-6.45,2.09-10.77,10.28-4.84,9.18-10.32,17.78-16.18,26.36-1.09,1.59-.45,3.38.69,4.58,6.17,6.48,7.39,15.12,4.76,23.37-1.78,5.59-5.62,9.23-11.71,10.04-4.35.58-8.73-1.31-9.84-6.26Z"/>
        <g>
          <path class="cls-1" d="M55.13,556.52h-8.16c-1.65-3.77-1.53-7.73-1.45-11.98l.36-19.4.46-26.36.49-16.24.5-20.14.41-20.93.33-10.52c-.82-.15-2.09-.27-2.48.06s-.89,1.17-1.1,1.83c-6.73,21.1-13.39,38.98-26.83,56.9-.54.72-1.89,1.26-2.53,1.03-.55-.2-1-1.65-.8-2.41,4.55-17.4,7.61-34.71,9.24-52.64.5-5.49.61-10.51.13-15.84-.21-2.33,1.94-3.45,3.97-3.19,6.04.78,11.77,1.56,17.69,2.89.64.14,1.57.19,1.98-.04.33-.19.71-1.19.71-1.65v-15.83c0-.43-.46-1.4-.85-1.42-.29-.02-1.1.1-1.41.26-6.14,3.09-12.69,6.41-19.01,9.08-2.82,1.19-5.35-.38-6.32-2.9-2.57-6.72-4.66-13.36-6.53-20.35-.48-1.81.72-3.4,2.53-3.69l23.04-3.72c1.78-.29,2.98-1.5,3.81-3.15,10.41-20.8,18.76-42.21,25.55-64.47,1.25-4.09,1.99-7.74,2.55-11.93.2-1.48,1.46-3.38,3.48-2.75,6.78,2.11,13.44,4.46,19.91,7.41,3.5,1.6,8.06,4.15,6.98,8.33-1.13,4.4-7.08,1.55-12.38,10.46l-15.2,25.6c-.2.34-.39,1.27-.35,1.64s.85.96,1.27,1.06c7.05,1.7,13.25,5.1,18.87,9.97.94-1.95-1.8-6.86,1.46-7.21l15.89-1.68c2.83-7.85,6.96-14.38,12.21-20.75,4.77-5.78,9.45-11.21,15.53-15.62l13.91-10.09c5.58-4.05,11.56-7.67,15.65-13.62l-18.6,11.6c-12.8,7.99-14.36,8.35-25.26,19.34-.84.84-3.13,1.99-4.14,1.05-3.59-8.83-3.09-18.66.91-27.38,8.22-17.95,24.55-23.25,41.63-29.67,7.71-2.9,14.88-6.61,20.59-12.6l4.01-4.21c.55-.57,2.4.52,2.76,1.23,6.05,11.8,7.93,24.86,5.62,37.95-1.35,7.63-3.22,14.73-6.81,21.59-6.41,12.26-17.2,20.96-30.07,25.88-16.7,6.38-26.34-1.88-29.08,2.04-2.53,3.62-4.27,6.81-6.37,11.19,2.19.4,3.75.26,5.87-.02l58.25-7.79c2-.27,3.08-2.6,3.89-4.07,3.04-5.48,5.94-10.71,9.67-15.6,1.53-2,3.87-2.67,6.08-1.28,5.67,3.55,13.91,9.61,15.46,16.39.62,2.71-.66,5.02-3.35,5.41l-44.71,6.43c-1.13.16-2.59,1.15-3,1.91-.37.7-.25,2.29.05,3.36,2.64,9.41,5.93,19.21,10.41,27.79.17.33.77.79,1.02.79s.96-.46,1.09-.7c4.78-8.91,8.64-18.59,11.36-28.31.25-.89.85-1.67,1.34-1.96s2.16-.31,2.68,0l18.55,11.48c2.35,1.45,4.14,3.29,5.43,5.64,1.08,1.95.47,5.74-1.96,6.22-4.28.85-8.09,1.9-11.71,4.43l-18.9,13.21c-.85.6-1.21,2.05-.53,2.98,9.25,12.71,21.24,22.44,35.18,29.58.78.4,1.7,1.63,1.78,2.32s-.68,2.15-1.28,2.61c-16.94,12.82-18.24,28.66-23.57,30.06-3.51.92-7.49-4.29-9.44-7.3-6.95-10.73-11.96-22.19-15.72-34.51-4.32-14.16-7.14-28.34-8.65-43.05l-1.76-17.2c-.08-.75-.19-1.55-.62-1.6s-1.47.68-1.45,1.13l1.34,42.89,2.27,52.05c.19,4.36.3,8.59-.97,12.66-2.63,8.46-8.87,14.8-16.83,18.47-3.06,1.41-13.91,5.51-16.04,3.08-.5-.58-1.21-1.98-1.29-2.86-.66-7.27-5.2-13-12.27-14.84l-8.75-2.28c-1.26-.33-2.14-1.15-1.96-2.46.1-.76,1.27-1.64,2.26-1.74,7.59-.81,14.9-1.93,22.11-4.17,5.21-1.24,7.98-5.33,7.95-10.65-.06-8.85.43-17.37-.36-27.06-9.07,11.93-17.33,22.96-26.67,33.8-2.68,3.11-8.15,6.76-10.91,2.76l-4.34-6.29c-3.07-4.45-4.85,3.7-14.44,1.45-6.66-1.56-6.26-9.13-6.95-16.34s-1.7-13.62-3.8-20.22c-1.55-4.86-4.86-7.93-3.78-9.49.29-.42,1.53-1.15,2.21-.98,31.5,7.77,25.16,24.59,31.67,22.08,12.16-4.69,23.55-10.19,35.04-16.28,1.43-.76,2.38-2.52,2.38-4.18l-.02-51.29c0-.54-.35-1.46-.64-1.74-.22-.21-1.22-.45-1.55-.4-5.44.76-43.18,6.3-44.16,8.66-.15.37.12,1.48.36,1.81,5.09,7.12,6.49,16.07,3.51,24.32-1.68,4.65-5.54,7.29-10.3,8.24s-9.29-1.32-10.41-6.22c-.99-4.31-.3-7.8-1.76-8.64-.42-.24-1.74-.14-2.16.18l-3.81,2.88,2.93,1.9c.69.45,1.63,1.6,1.66,2.34.14,3.57-5.96,3.28-5.96,10.86l.04,114.94-.04,25.5c-.01,6.06-4.37,11.02-9.86,12.89l-5.84,1.99ZM170.11,291.55c0-.17-.14-.3-.3-.3s-.3.14-.3.3.14.3.3.3.3-.14.3-.3ZM76.88,371.29c-1.01-6.22-2.61-11.31-7.03-15.78l-13.34,19.14c-.24.35,1.1,1.27,1.53,1.17l18.84-4.53Z"/>
          <path class="cls-1" d="M121.29,411.35c-8.99-.4-9.39-10.73-9.74-17.58-.4-7.97-3.93-16.08-9.58-21.48-.4-.38-.47-1.94-.27-2.38.24-.53,1.22-1.19,1.9-1.17,11.16.22,26.68,3.3,31.65,14.53,2.35,5.32,2.37,11.37.92,16.99-1.72,6.65-7.81,11.41-14.88,11.1Z"/>
        </g>
      </g>
      <g>
        <g>
          <path class="cls-1" d="M360.76,271.23c1.08-.14,3.74-.79,3.75-2.03l.12-12.46c0-.89-1.42-1.79-2.43-1.64l-18.39,2.89c-8.97,1.41-17.59,3.2-26.41,5.22-1.77.41-3.08-.54-3.51-2.17l-1.03-3.96c-.17-.66.57-2.05,1.43-2.11,15.68-.97,30.81-2.7,46.38-4.91,1.55-.22,3.62-.78,3.79-2.57.51-5.35-.25-10.57-1.59-15.76-.45-1.74.82-3.28,2.67-3.27l24.51.06c1.64,0,7.56.74,8.72,3.04.52,1.03.27,2.83-.42,3.81-3.28,4.66-6.72,3.94-7.5,6.82-.22.81.26,2.99,1.1,3.32l18.21-2.52c1.71-.24,3.13-1.53,4.05-2.81l9.99-13.98c1.9-2.66,5.4-3.4,8.27-1.68,5.73,3.43,10.99,7.22,15.95,11.74.88.8,1.1,3.11.81,4.15s-1.69,2.52-3.27,2.74l-52.85,7.53c-1.24.18-2.24,1.54-2.24,2.61v11.77c0,.62,1.24,1.64,2,1.54l13.22-1.86c.86-.12,2.26-1.38,2.77-2.04l9.14-12.02c1.61-2.12,4.72-2.16,7.04-.98,5.16,2.64,9.57,6.06,13.83,10.09.73.69.87,2.61.51,3.39s-1.55,2.23-2.67,2.39l-57.35,8.22-38.14,6c-4.09.64-7.68,1.69-11.74,2.79-.66.18-2.39-.01-2.8-.53-.93-1.18-1.93-5.1-1.68-6.8,1.67-1.13,3.57-.85,5.55-.94,10.24-.44,20.01-1.8,30.21-3.08Z"/>
          <path class="cls-1" d="M369.97,437.21c-21.8,13.9-39.91,20.33-64.89,26.83-1.01.26-2.28-.44-2.58-1.45-.23-.77.4-1.68,1.35-2.22,16.62-9.43,29.48-18.9,42.95-32.4,3.35-3.35,6.05-6.7,8.37-10.88.55-.98,2.45-1.99,3.66-1.59,7.82,2.61,15.28,5.35,22.34,9.25,1.92,1.06,2.89,3.39,2.57,5.32-.83,5.14-7.47,3.12-13.77,7.13Z"/>
        </g>
        <g>
          <path class="cls-1" d="M328.54,407.88l.42-18.85.47-15.36c.34-11.2.43-19.47-1.13-30.65-.24-1.69-2.44-2.55-3.93-2.38l-2.06.24c-1.85.22,1.65,7.76-.98,16.55-1.79,5.98-7.12,9.66-13.38,9.22-10.49-.74-3.73-18.91-8.95-15.73l-3.78,2.3c-2.82,1.72,1.6,1.87,2.92,4.78,1.97,4.33-5.96,4.05-5.96,12.37l-.04,134.25-.39,12.09c-.15,4.65-1.36,8.47-5.55,10.94-4.55,2.68-9.8,3.89-15.17,4.09-2.35.09-4.22-1.41-4.36-4.01-.27-5.13-.21-10.25-.08-15.43l.47-19.19.48-26.44.48-17.18.46-15.49.75-33.27c0-.43-.48-1.33-.8-1.52-.4-.23-1.46.7-1.62,1.2-7.09,21.7-13.43,38.93-26.97,57.84-.43.6-1.5,1.02-2.17.95-.72-.07-1.32-1.4-1.06-2.41,5.33-20.97,8.92-42.03,9.86-63.63.08-1.79-.34-3.63-.39-5.48-.04-1.52,1.34-2.47,2.93-2.44,5.92.12,11.93,1.36,17.69,2.63.49.11,1.68.03,2.08-.1s.84-1.05.84-1.54v-15.1c0-.42-.29-1.15-.44-1.41s-1.22-.39-1.69-.16l-18.58,8.86c-1.14.54-2.96.56-3.95.2-.84-.31-1.97-1.56-2.33-2.7l-6.53-20.42c-.21-.65.11-2.35.51-2.88s1.52-1.07,2.39-1.21l23.47-3.79c1.77-.28,3.2-1.89,3.96-3.58,9.87-21.88,17.74-44.28,23.85-67.52,1.14-4.35.52-11.74,4.14-10.8,8.43,2.2,16.66,4.64,24.34,8.54,2.24,1.14,3.37,3.58,3.06,5.66-.97,6.37-7.52,2.01-11.86,11.12s-9.22,18.04-14.4,26.75c-.21.35-.42,1.8-.05,2l1.5.8c9.69,2.78,16.66,6.44,22.43,15.1,1.23-14.1,1.89-27.44,1.39-41.17-.17-4.79-2.11-7.45-.75-9.57.31-.49,1.65-1.03,2.27-.94,6.5.96,12.36,2.06,18.63,3.66,2.36.6,5.25,2.59,7.89,2.21l61.2-8.65c4.17-.59,6.08-6.7,11.52-11.59,2.47-2.22,5.63-1.25,8.17.2,4.71,2.68,15.84,8.8,15.63,14.47s-7.2,3.5-6.66,13.75l.66,12.43c.54,10.11-8.14,13.49-16.83,14.63,3.36,3.58,15.65,7.78,15.37,13.87-.21,4.47-6.6,6.7-6.71,10.33-.21,6.99-.22,13.65.1,20.65l1.33,29.23c.37,8.09-6.57,10.52-8.57,12.24-.82.7,10.2,1.67,16.23,5.97s8.1,11.05,5.98,17.84c-1.63,5.21-5.34,8.68-10.76,9.88-14.82,3.28-16.58-7.85-27.38-16.99-5.98-5.06-12.85-8.21-20.34-10.49-.81-.25-1.64-1.21-1.64-1.86,0-.62.88-1.87,1.63-1.97l16.99-2.22c.65-.09.84-1.89.51-2.37s-1.39-.99-2.18-.88l-46.57,6.64c-4.99.71-2.12,5.29-9.64,9.14-4.15,2.12-18.03,7.2-18.59-1.09-.34-4.96.14-10.03.25-15.15ZM412.89,295.98c1.05-.12,2.53-1.76,2.52-2.83l-.06-6.55c-5.44-1.2-12.59.52-13.38,6.7-.14,1.07.83,3.81,2,3.68l8.92-.99ZM345.34,325.5l66.77-9.47c1.5-.21,2.75-1.15,3.25-2.1.44-.83-.2-3.6-1.3-3.46l-17.38,2.21c-2.59.33-5.38.31-8.06,0-2.96-.35-5.13-3.54-5.15-6.57l-.11-15.19c-2.98-.32-4.9-.11-7.65.73,1.93,1.76,5.78,1.59,5.13,5.61s-2.97-.02-9.8,9.6c-6.02,8.49-17.05,13.82-26.5,16.89-.55.18-1.44,1.17-1.1,1.41.25.18,1.16.42,1.89.32ZM356.41,294.92c-6.45-2.46-13.76,2.54-13.81,9.34l-.08,12.24c0,.36.48,1.34.69,1.22,4.8-2.66,12.09-16.2,13.19-22.81ZM397.76,337.23c10.01-1.42,6.22-5.37,16.29-13.27.53-.41,1.07-1.26,1.1-1.78s-1.47-1.07-2.19-.97l-66.42,9.36c-3.92.55-6.84,3.67-7.56,7.27,7.13,1.11,13.44,2.31,19.78,4.91l38.99-5.53ZM297.64,340.12c3.77-.89-3.18-12.67-4.33-14.43-.23-.35-1.03-.88-1.41-.87s-1.15.54-1.36.86l-11.43,17.57c.79.82,1.92.77,3.02.51l15.51-3.65ZM403.53,357.49c.88-.13,1.85-1.4,1.85-2.06v-11.32c0-1.34-1.45-2.41-2.92-2.2l-42.38,6.16c-4.22.61-6.4,4.84-6.41,8.55l-.02,5.64c0,1.09,1.05,2.2,2.35,2.02l47.53-6.79ZM355.76,386.45l46.84-6.63c1.59-.22,2.8-1.64,2.8-3.1l-.02-11.52c0-1.35-1.44-2.36-2.93-2.15l-44.04,6.28c-6.24.89-4.56,6.15-4.7,13.01-.02,1.14-.51,4.47,2.06,4.11ZM357.39,409.49l45.04-6.43c.98-.14,2.91-.9,2.92-1.83l.05-14.51c0-1.01-1.27-1.67-2.47-1.7l-45.92,6.51c-1.96.28-3.38,1.32-3.36,3.38l.05,6.23-.05,6.19c0,.59.46,1.95.98,2.21s1.63.11,2.76-.05Z"/>
          <path class="cls-1" d="M258.8,327.59c-2.96-1.1-4.55-4.52-5.09-7.27-2.24-11.55-3.84-23.68-13.89-31.38-.85-.65-1.5-1.68-1.22-2.58.87-2.88,13.48-.62,16.63.17,1.78.45,3.3-.37,3.72-2.12l3.6-14.65c2.07-8.45,3.42-16.69,4.3-25.36.13-1.3,1.41-2.31,2.73-2.08,8.13,1.4,19.39,3.21,26.05,7.64,1.1.73,1.77,2.87,1.6,4.04-.58,3.9-6.39,2.38-10.6,9.8-5.27,9.29-10.48,18.29-16.53,27.16-.8,1.17-.39,2.7.49,3.66,6.11,6.72,8.05,15.77,4.99,24.25-2.47,6.85-9.43,11.47-16.77,8.74Z"/>
          <path class="cls-1" d="M310.4,427.25c-5.07,1.11-9.7-1.83-10.33-7.13-.33-2.73-.28-5.75-.33-8.66-.17-10-.64-21.8-6.33-30.3-.38-.57-.5-1.79-.2-2.29s1.72-1.25,2.42-1.08c14.76,3.55,26.77,15.01,26.32,31.49-.22,8.06-2.32,15.94-11.54,17.95Z"/>
        </g>
      </g>
      <g>
        <path class="cls-1" d="M8.6,109.72c-.3-1.28-.43-2.79.3-3.82l48.11-5.86,40.31-5.75c2.73-.39,4.78-.96,6.42-3.35l9.35-13.61c1.58-2.29,4.76-3.18,7.23-1.67,4.19,2.56,17.92,10.66,16.21,15.64-.33.97-1.6,2.4-3.06,2.61l-87.07,12.48c-11.66,1.67-22.72,3.41-34.16,5.78-1.79.37-3.16-.36-3.65-2.44Z"/>
        <path class="cls-1" d="M20.82,161.64c-1.57.26-2.85-1.12-3.24-1.97-.45-.98-.67-3.7.34-4.26l55.87-6.9,14.82-2.05c2.24-.31,3.78-1.28,5.05-3.21l9.51-14.36c1.46-2.2,3.96-2.28,6.07-.96,4.77,3,9.12,6.32,13.43,10.04,1.37,1.18,2.41,3.28,2.28,5.08s-1.93,3.13-3.75,3.39l-63.3,8.95-37.09,6.26Z"/>
      </g>
      <g>
        <path class="cls-1" d="M451.85,168.77c-4.13,3.43-8.88,5.12-14.08,6.25-16.46,3.57-32.82,5.97-49.62,7.7-3.36.34-6.7-.02-9.91-.54-9.38-1.52-7.73-13.12-7.6-19.35l.14-6.3c.01-.51-.14-1.35-.43-1.65s-1.46-.5-1.91-.43l-17.26,2.46c-5.38.77-.4,7.82-6.89,13.87-4.26,3.97-14.9,4.38-15,.59s-.19-7.91,0-11.93c.44-9.06.49-17.77.47-26.84l-.03-14.9c0-4.13-1.55-7.23-.52-8.7,1.46-2.09,19.5,2.41,22.97,3.59l58.41-8.17c6.66-.93,7.87-13.46,15.89-9.68,4.64,2.18,8.67,4.7,12.16,8.5,4.47,4.87-4.08,6.51-4.01,11.6l.14,10.37c.1,7.32.48,14.38.25,21.77-.17,5.33-10.66,9.36-16.94,8.78-4.48-.41-.66-8.16-5.49-7.48l-19.8,2.76c-3.64.51-2.58,7.27-2,9.55s3.4,2.78,5.52,2.46l29.73-4.45c7.91-1.18,14.79-6.05,17.89-13.42l5.92-14.08c.23-.56,1.44-1.11,1.9-.96s.71,1.29.65,1.91c-.42,4.82-.72,9.18-.71,14.01,0,2.28,1.11,4.61,2.38,6.4,3.71,5.26,2.92,12.06-2.22,16.32ZM392.66,126.05l20.09-2.82c1.25-.17,2.66-1.41,2.67-2.79l.06-10.41c0-.99-1.34-2.19-2.37-2.03l-15.42,2.39c-4.05.63-7.12,4.32-7.24,8.2l-.19,6c-.02.66,1.4,1.59,2.4,1.45ZM350,132.05l17.55-2.56c2.02-.3,3.41-1.63,3.45-3.6l.16-8.63c.02-.96-.16-3.27-1.71-3.04l-16.75,2.52c-2.39.36-4.23,2.61-4.28,5.1l-.15,8.16c-.01.58,1.1,2.14,1.74,2.05ZM392.68,147.04l20.75-3.05c.98-.14,2.01-1.85,2.01-2.81l.03-11.53c0-1.44-1.29-2.71-2.93-2.46l-18.68,2.82c-2.29.35-3.52,2.27-3.54,4.43l-.07,10.7c0,.98,1.13,2.09,2.43,1.9ZM351.42,152.86l17.44-2.48c1.05-.15,2.2-1.32,2.2-2.38l.02-13.1c0-.51-1.09-1.6-1.77-1.5l-16.67,2.41c-2.64.38-4.26,1.97-4.28,4.74l-.08,10.2c-.01,1.46,1.52,2.35,3.15,2.11Z"/>
        <g>
          <path class="cls-1" d="M428.64,52.89l-33.82,4.73c-3.44.48-2.05,8.83-1.83,12.41.52,8.66.32,17.27.17,26.01s-10.96,10.41-17.44,10.42c-1.65,0-3.09-1.76-3.21-3.29-.36-4.45-.2-8.61.09-13.02s.25-8.42.25-12.73v-13.94c0-1.5-.87-2.58-2.45-2.35l-32.27,4.56c-6.01.85.51,7.55-5.96,18.12-3.34,5.46-9.04,8.89-15.49,8.33-2.96-.26-5.04-2.13-6.1-4.8-3.19-8.05,3.91-12.95,9.26-17.24,8.6-6.88,5.22-14.89,7.38-15.89.4-.18,1.62-.05,1.95.28,5.1,4.98,2.98,8.04,7.71,7.37l33.67-4.75c1.64-.23,2.34-1.66,2.33-3.12l-.04-9.26c0-.32-.15-1.1-.26-1.38-.15-.38-1.34-.78-1.75-.72-12.7,1.7-24.84,3.78-37.41,6.35-1.76-.22-3.27-3.79-1.89-5.21,1.24-1.28,3.85-1.12,5.77-1.28,13.47-1.11,26.37-2.89,39.75-4.79l29.83-4.22c1.63-.23,3.41-1.22,4.31-2.45l6.96-9.45c1.19-1.62,3.25-3.53,5.54-2.62,6.51,2.57,20.05,12.94,11.43,14.31l-36.62,5.82c-5.88.93-8.85,15.32-3.18,14.52l29.86-4.21c1.74-.25,3.26-1.17,4.32-2.47l5.46-6.71c.89-1.09,3.26-2.75,4.75-1.88,4.99,2.91,19.49,12.8,16.87,19.05-1.4,3.35-6.69,1.51-14.29,6.04-4.27,2.55-8.24,5.07-12.59,7.97l9.3,7.05c.61.46,1.1,2.2,1,3s-1.4,1.91-2.55,2.08l-25.46,3.7c-4.49.65-8.4,1.5-13.01,2.5-.76.16-1.82-1.1-2.05-1.79-.28-.83-.2-3.11.69-3.2l17.83-1.92c2.73-.29,4.56-1.45,6.1-3.72l4.25-6.26c.46-.67.19-3.33-.62-3.22l-10.27,1.33-16.8,2.84c-1.62.27-2.26-4.18-.77-4.8l5.93-.38c7.19-.46,9.21-11.03,12.6-10.09,7.15,1.97,10.76,10.12,11.77,6.04l2.39-9.69c.13-.52-.64-2.07-1.4-1.96Z"/>
          <path class="cls-1" d="M331.13,99.23c-1.64.01-2.37-4.46-.72-5.04,1.85-.6,4.36-.18,6.35-.45l14.67-2.06c2.6-2.24,5.59-9.85,8.81-8.93,3.9,1.12,11.12,6.68,9.36,9.43-.3.47-1.23,1.12-1.88,1.21l-17.59,2.5c-6.37.91-12.36,2.03-19.01,3.34Z"/>
          <path class="cls-1" d="M347.78,80.49c-2.76.42-5.52,1.49-8.07,1.52-1.91.02-2.02-3.92-.82-4.83l10.07-.89c1.88-.17,3.42-1.38,4.44-2.84l3.99-5.71c.51-.74,2.82-1.1,3.65-.69,2.85,1.41,9.77,5.87,8.68,8.94-.19.52-1.14,1.31-1.78,1.41l-20.18,3.09Z"/>
        </g>
      </g>
      <path class="cls-1" d="M585.33,292.51c.07,5.73-7.75,4.61-7.3,14.16l.61,12.96.67,16.02c.28,6.65-1.82,12.17-8.3,14.83-3.67,1.51-13.57,4.35-16.67,2.25-2.79-1.9.06-7.69-5.05-6.96l-40,5.69c-1.12.16-1.92,1.25-2.19,2.26l-5.37,19.89c6.13-6.9,12.04-12.5,20.17-16.11,21.59-9.56,46,.62,52.12,23.29,4.68,17.36-.06,36.22-12.35,49.43-7.79,8.37-17.79,13.98-29.09,15.46-15.16,1.97-29.3-5.42-36.36-18.8-3.4-6.43-5.1-13.49-5.12-20.81,0-1.29.29-2.64-.26-3.64-7.91,13.39-17.02,25.04-28.52,34.95-.54.47-1.7.55-2.17.27s-.8-1.96-.5-2.44c8.95-14.19,15.08-29.17,18.77-45.58,3.5-15.56,5.12-30.94,5.47-46.88l.6-26.98-.21-11.01c-.09-4.6-.29-9.1-2.63-13.55-6.88,5.22-13.15,9.95-20.12,14.46-.69.44-2.03.56-2.57.07s-.66-2.02-.04-2.68c6.39-6.83,12.1-13.66,17.4-21.46,13.76-20.23,28.67-48.86,33.68-72.82.46-2.18,2.78-2.44,4.6-2.11,9.85,1.79,19.39,3.56,28.63,7.32,1.5.61,2.8,2.22,3.09,3.4.38,1.57-.38,3.98-1.85,4.72l-4.94,2.51c6.67.34,12.52.08,18.72,1.27,7.72,1.48,15.28,4.15,21.05,9.58,5.95,5.61,7.19,14.2,5.09,21.87-2.37,8.68-11.72,13.61-19.99,9.66-6.69-3.2-7.5-23.88-28.19-36.47-1.19-.73-2.67-.87-3.55.62-8.12,13.77-17.68,26.23-28.33,38.16-.28.31-.61.93-.74,1.22-1.02,2.27,19.56-.98,21.6-1.26,2.36-.32,3.7-.92,4.94-2.94,2.66-4.32,5.4-8.5,8.46-12.54,1.52-2.01,4.04-2.83,6.28-1.54,4.06,2.35,14.9,9.79,15,14.29.02,1-.94,3.15-2.19,3.33l-42.33,6.12c-4.28.62-8.47,1.75-12.5,2.75-.8.2-2.63.56-3.04.01l-2.02-2.7-11.6,10.92c-3.66,3.45,8.52,1.95,16.5,4.61,5.41,1.81,10.6,3.02,16.51,2.2l26.8-3.74c2.03-.28,4.15-.83,5.28-2.52,2.49-3.71,4.84-7.2,7.59-10.65,1.7-2.13,4.85-2.42,7.24-1.22,6.32,3.18,11.78,7.35,16.98,12.15,1.34,1.24,2.24,3.01,2.26,4.72ZM512.21,319.27l38.37-5.47c.91-.13,1.86-1.42,1.86-2.25l-.02-15.06c0-1.01-1.05-2-2.12-1.84l-34.27,4.99c-3.9,1.12-6.95,4.3-6.97,8.48l-.04,9.65c0,.91,1.88,1.68,3.18,1.49ZM511.71,345.77l38.47-5.44c1.12-.16,2.25-1.41,2.25-2.4v-16.97c0-.71-1.31-1.79-2.16-1.67l-39.24,5.5c-1.05.15-2.1,1.45-2.17,2.45-.37,5.94-.49,11.36-.35,17.33.03,1.17,1.94,1.36,3.21,1.19ZM545.8,372.71c-1.58-4.38-3.9-7.77-6.92-10.57l-1.71-.36c-1.59-.33-.79,10.26-.72,11.33.23,3.14,9.19.83,9.35-.4ZM561.22,371.16c-3.6-4.27-7.2-7.18-12.36-8.41.96,3.32,2.29,5.79,3.28,7.95,1.39,3,5.79,1.17,9.08.46ZM530.59,364.53c0-.29-.57-1.15-.77-1.33-1.31-1.22-8.67,10.16-8.48,13.02,1.46.63,2.91.75,4.51.68,5.88-.28,4.81-7.05,4.75-12.37ZM513.49,377.63c2.36-2.69,3.14-6.21,4.28-9.61-5.15,2.44-8.86,6.28-11.68,10.98,2.41-.04,5.8.45,7.4-1.37ZM559.07,393.09l8.23-1.27c.65-.1,1.83-.7,2.01-1.24.59-1.81-1.79-8.84-2.7-11.49-.27-.78-1.99-1.69-2.81-1.57l-7.36,1.1c-.69.1-1.53,1.53-1.44,2.29l1.05,9.24c.09.82.32,1.9.64,2.4.27.42,1.77.63,2.38.54ZM538.91,395.97l9.52-1.39c.8-.12,1.8-1.62,1.67-2.46l-1.53-10.34c-.2-1.36-2.21-1.84-3.29-1.7l-5.72.76c-1.07.14-3.2,1.3-3.21,2.49l-.13,10.72c-.01.99,1.54,2.08,2.68,1.91ZM528.51,397.45c.84-.12,2.09-1.46,2.09-2.38v-10.86c0-.82-1.95-1.7-2.77-1.58l-6.59.93c-1.65.23-2.8,1.67-3.06,3.36-.41,2.73-2.59,12.35.42,11.93l9.92-1.4ZM508.26,400.34c2.02-.26,2.62-1.95,2.7-3.49.16-3.2.59-6.53,1.04-9.54.63-4.22-8.31-.91-10.45-.52-2.54,4.71-3.91,9.35-3.57,14.88l10.29-1.34ZM557.1,414.68l5.74-.92c1.31-.21,3.04-.96,3.54-2.31.81-2.16,5.26-13.78,1.3-13.19l-8.3,1.23c-2.33.35-3.11,1.35-3.34,3.63l-.99,9.59c-.05.44.16,1.4.46,1.67.23.2,1.29.35,1.6.3ZM538.87,417.22l6.85-.9c1.92-.25,2.89-1.89,3.14-3.79l1.24-9.49c.06-.42-.4-1.5-.73-1.74-.25-.18-1.17-.35-1.51-.3l-8.68,1.36c-1.77.28-2.9,1.88-2.9,3.5l-.03,9.3c0,.95,1.46,2.21,2.63,2.05ZM521.85,419.71l6.34-.88c1.26-.18,2.44-1.43,2.43-2.78l-.03-10.09c0-1.38-1.5-2.27-2.83-2.08l-8.89,1.3c-1.41.21-2.12,1.74-1.94,3.12l1.2,9.02c.27,2.05,1.79,2.66,3.72,2.39ZM503.44,422.41l7.71-1.41c.77-.14.91-2.35.8-3.11-.45-2.9-.82-6.08-1.02-9.12-.07-1.1-1.14-2.16-2.34-2l-8.19,1.09c-1.56.21-2.9.92-2.67,2.94.39,3.44,1.53,6.98,2.83,10.23.29.72,1.98,1.56,2.89,1.39ZM548.88,432.58c5.04-2.77,8.91-6.5,11.85-11.45-2.61-.86-6.46-.29-8.02,2.15-1.85,2.89-2.79,6.42-3.83,9.31ZM545.65,423.24c-2.43-.95-5.28-.58-7.21.56-3.19,1.89-1.99,9.41-2.11,12.78,2.43,2.35,9.87-11.34,9.32-13.35ZM530.65,436.5l-.1-8.86c0-.69-.72-2.2-1.38-2.37-1.24-.31-6.61.18-7.78,1.84-.57,2.68,9.33,15.53,9.26,9.4ZM518.76,437.67l-3.89-8.26c-1.48-3.14-4.2-1.92-8.79-.64,3.27,4.71,7.62,7.04,12.68,8.9Z"/>
    </g>
  </g>
</svg>